<svg xmlns="http://www.w3.org/2000/svg" xmlns:xlink="http://www.w3.org/1999/xlink" contentStyleType="text/css" height="234px" preserveAspectRatio="none" style="width:381px;height:234px;background:#FFFFFF;" version="1.1" viewBox="0 0 381 234" width="381px" zoomAndPan="magnify"><defs/><g><!--entity pLife--><g id="elem_pLife"><rect fill="#F1F1F1" height="49.0679" rx="2.5" ry="2.5" style="stroke:#181818;stroke-width:0.5;" width="63.6599" x="123" y="7"/><rect fill="#F1F1F1" height="10" style="stroke:#181818;stroke-width:0.5;" width="15" x="166.6599" y="12"/><rect fill="#F1F1F1" height="2" style="stroke:#181818;stroke-width:0.5;" width="4" x="164.6599" y="14"/><rect fill="#F1F1F1" height="2" style="stroke:#181818;stroke-width:0.5;" width="4" x="164.6599" y="18"/><text fill="#000000" font-family="sans-serif" font-size="14" lengthAdjust="spacing" textLength="23.6599" x="138" y="41.9659">Life</text></g><!--entity sExist--><g id="elem_sExist"><path d="M6,17.5 C6,7.5 46.8629,7.5 46.8629,7.5 C46.8629,7.5 87.7258,7.5 87.7258,17.5 L87.7258,45.5679 C87.7258,55.5679 46.8629,55.5679 46.8629,55.5679 C46.8629,55.5679 6,55.5679 6,45.5679 L6,17.5 " fill="#F1F1F1" style="stroke:#181818;stroke-width:0.5;"/><path d="M6,17.5 C6,27.5 46.8629,27.5 46.8629,27.5 C46.8629,27.5 87.7258,27.5 87.7258,17.5 " fill="none" style="stroke:#181818;stroke-width:0.5;"/><text fill="#000000" font-family="sans-serif" font-size="14" lengthAdjust="spacing" textLength="61.7258" x="16" y="46.4659">Existence</text></g><!--entity pChange--><g id="elem_pChange"><rect fill="#F1F1F1" height="49.0679" rx="2.5" ry="2.5" style="stroke:#181818;stroke-width:0.5;" width="90.5118" x="231.5" y="7"/><path d="M261.6706,7 L261.6706,12 L254.6706,19 L231.5,19 " fill="none" style="stroke:#181818;stroke-width:0.5;"/><text fill="#000000" font-family="sans-serif" font-size="14" lengthAdjust="spacing" textLength="50.5118" x="246.5" y="41.9659">Change</text></g><!--entity pSys--><g id="elem_pSys"><rect fill="#F1F1F1" height="49.0679" rx="2.5" ry="2.5" style="stroke:#181818;stroke-width:0.5;" width="87.5718" x="111" y="135"/><rect fill="#F1F1F1" height="10" style="stroke:#181818;stroke-width:0.5;" width="15" x="178.5718" y="140"/><rect fill="#F1F1F1" height="2" style="stroke:#181818;stroke-width:0.5;" width="4" x="176.5718" y="142"/><rect fill="#F1F1F1" height="2" style="stroke:#181818;stroke-width:0.5;" width="4" x="176.5718" y="146"/><text fill="#000000" font-family="sans-serif" font-size="14" lengthAdjust="spacing" textLength="47.5718" x="126" y="169.9659">System</text></g><!--entity sState--><g id="elem_sState"><path d="M16,145.5 C16,135.5 46.1249,135.5 46.1249,135.5 C46.1249,135.5 76.2499,135.5 76.2499,145.5 L76.2499,173.5679 C76.2499,183.5679 46.1249,183.5679 46.1249,183.5679 C46.1249,183.5679 16,183.5679 16,173.5679 L16,145.5 " fill="#F1F1F1" style="stroke:#181818;stroke-width:0.5;"/><path d="M16,145.5 C16,155.5 46.1249,155.5 46.1249,155.5 C46.1249,155.5 76.2499,155.5 76.2499,145.5 " fill="none" style="stroke:#181818;stroke-width:0.5;"/><text fill="#000000" font-family="sans-serif" font-size="14" lengthAdjust="spacing" textLength="40.2499" x="26" y="174.4659">States</text></g><!--entity pProc--><g id="elem_pProc"><rect fill="#F1F1F1" height="49.0679" rx="2.5" ry="2.5" style="stroke:#181818;stroke-width:0.5;" width="105.3518" x="234.5" y="135"/><path d="M269.6173,135 L269.6173,140 L262.6173,147 L234.5,147 " fill="none" style="stroke:#181818;stroke-width:0.5;"/><text fill="#000000" font-family="sans-serif" font-size="14" lengthAdjust="spacing" textLength="65.3518" x="249.5" y="169.9659">Processes</text></g><!--link sExist to pLife--><g id="link_sExist_pLife"><path d="M88.34,31.5 C99.89,31.5 105.43,31.5 116.97,31.5 " fill="none" id="sExist-to-pLife" style="stroke:#181818;stroke-width:1.0;"/><polygon fill="#181818" points="122.97,31.5,113.97,27.5,117.97,31.5,113.97,35.5,122.97,31.5" style="stroke:#181818;stroke-width:1.0;"/></g><!--reverse link pLife to pChange--><g id="link_pLife_pChange"><path d="M193.41,31.5 C207.99,31.5 216.57,31.5 231.15,31.5 " fill="none" id="pLife-backto-pChange" style="stroke:#181818;stroke-width:1.0;"/><polygon fill="#181818" points="187.41,31.5,196.41,35.5,192.41,31.5,196.41,27.5,187.41,31.5" style="stroke:#181818;stroke-width:1.0;"/></g><!--link sState to pSys--><g id="link_sState_pSys"><path d="M76.23,159.5 C87.82,159.5 93.41,159.5 105,159.5 " fill="none" id="sState-to-pSys" style="stroke:#181818;stroke-width:1.0;"/><polygon fill="#181818" points="111,159.5,102,155.5,106,159.5,102,163.5,111,159.5" style="stroke:#181818;stroke-width:1.0;"/></g><!--reverse link pSys to pProc--><g id="link_pSys_pProc"><path d="M205.09,159.5 C216.88,159.5 222.67,159.5 234.46,159.5 " fill="none" id="pSys-backto-pProc" style="stroke:#181818;stroke-width:1.0;"/><polygon fill="#181818" points="199.09,159.5,208.09,163.5,204.09,159.5,208.09,155.5,199.09,159.5" style="stroke:#181818;stroke-width:1.0;"/></g><!--link sExist to sState--><g id="link_sExist_sState"><path d="M46.82,55.61 C46.64,78.2 46.4176,106.4202 46.2376,129.1102 " fill="none" id="sExist-to-sState" style="stroke:#181818;stroke-width:1.0;stroke-dasharray:7.0,7.0;"/><polygon fill="#181818" points="46.19,135.11,50.2613,126.142,46.2297,130.1102,42.2615,126.0786,46.19,135.11" style="stroke:#181818;stroke-width:1.0;"/></g><!--link pLife to pSys--><g id="link_pLife_pSys"><path d="M155,56.2 C155,78.73 155,106.42 155,128.91 " fill="none" id="pLife-to-pSys" style="stroke:#181818;stroke-width:1.0;stroke-dasharray:7.0,7.0;"/><polygon fill="#181818" points="155,134.91,159,125.91,155,129.91,151,125.91,155,134.91" style="stroke:#181818;stroke-width:1.0;"/><text fill="#000000" font-family="sans-serif" font-size="13" lengthAdjust="spacing" textLength="67.9771" x="156" y="100.897">Instance of</text></g><!--link pChange to pProc--><g id="link_pChange_pProc"><path d="M278.88,56.2 C280.67,78.73 282.864,106.4389 284.654,128.9289 " fill="none" id="pChange-to-pProc" style="stroke:#181818;stroke-width:1.0;stroke-dasharray:7.0,7.0;"/><polygon fill="#181818" points="285.13,134.91,288.4033,125.621,284.7333,129.9258,280.4285,126.2557,285.13,134.91" style="stroke:#181818;stroke-width:1.0;"/></g><!--link pChange to pChange--><g id="link_pChange_pChange"><path d="M322.52,19.61 C341.45,18.79 357.5,22.75 357.5,31.5 C357.5,40.25 347.4444,44.4697 328.5144,43.6497 " fill="none" id="pChange-to-pChange" style="stroke:#181818;stroke-width:1.0;"/><polygon fill="#181818" points="322.52,43.39,331.3385,47.7757,327.5153,43.6064,331.6847,39.7832,322.52,43.39" style="stroke:#181818;stroke-width:1.0;"/></g><!--link pProc to pProc--><g id="link_pProc_pProc"><path d="M339.54,147.52 C358.76,147.19 374.5,151.19 374.5,159.5 C374.5,167.81 364.7591,171.913 345.5391,171.583 " fill="none" id="pProc-to-pProc" style="stroke:#181818;stroke-width:1.0;"/><polygon fill="#181818" points="339.54,171.48,348.47,175.6339,344.5393,171.5658,348.6073,167.6351,339.54,171.48" style="stroke:#181818;stroke-width:1.0;"/></g><text fill="#888888" font-family="sans-serif" font-size="10" font-weight="bold" lengthAdjust="spacing" textLength="60.7299" x="116.3551" y="210.2579">Processing()</text><text fill="#888888" font-family="sans-serif" font-size="10" lengthAdjust="spacing" textLength="71.4599" x="179.685" y="210.2579">Life - Definition</text><text fill="#888888" font-family="sans-serif" font-size="10" lengthAdjust="spacing" textLength="153.5998" x="106.9501" y="223.8779">(C) DSP-Crowd Electronics GmbH</text><!--SRC=[LO-zRiCm38HtFGNX9Oa1vG6A8eiJj0Ko1F3QHL6eLAXD2QA0rczV_JbjD_Bk-9sq0Vwqv5LGCqoMC2uUmRjfoOiGsitU4LA4xcmDTg0OV9x4JKLrLOpGdRujHoHTNIwhC0cOlE53qRsTrVaVSrpIvLpjDF-1Zb55v4eiyqgy1AUHkNa-hqAK9y6pdEJQlof1_XRdYXQgo2RaJENKOzZl3uz8uMIXX9_WZJYgz5bmHZHojTjBcYJbuL5ShAhKa74kOe2-Rv-nTD_k-XvAbuGZ6aisMaVlj1rsS1mlSWZkwmQd2NKCZgncU9clh-87]--></g></svg>